<svg width="231" height="231" xmlns="http://www.w3.org/2000/svg" xmlns:xlink="http://www.w3.org/1999/xlink" overflow="hidden"><defs><clipPath id="clip0"><rect x="489" y="140" width="231" height="231"/></clipPath></defs><g clip-path="url(#clip0)" transform="translate(-489 -140)"><path d="M662.25 312.287 629.308 259.783C628.719 258.821 627.67 258.237 626.541 258.243 625.408 258.243 624.354 258.824 623.75 259.783L614.125 275.231 634.771 308.63C636.518 311.272 636.893 314.591 635.781 317.557L659.122 317.557C661.033 317.653 662.66 316.181 662.755 314.269 662.79 313.573 662.614 312.882 662.25 312.287Z" fill="#7030A0"/><path d="M626.397 312.6 574.061 227.443C573.389 226.576 572.342 226.083 571.246 226.12L570.812 226.12 570.379 226.12C569.283 226.083 568.236 226.576 567.564 227.443L515.228 312.6C514.487 313.638 514.385 315.002 514.963 316.138 515.547 317.167 516.704 317.731 517.875 317.557L623.75 317.557C624.921 317.731 626.078 317.167 626.662 316.138 627.24 315.002 627.138 313.638 626.397 312.6ZM579.571 267.339 571.246 274.75 562.92 267.339 549.156 275.664 570.812 240.557 591.891 274.75Z" fill="#7030A0"/><path d="M546.75 231.438C546.75 235.424 543.518 238.656 539.531 238.656 535.544 238.656 532.312 235.424 532.312 231.438 532.312 227.451 535.544 224.219 539.531 224.219 543.518 224.219 546.75 227.451 546.75 231.438Z" fill="#7030A0"/><path d="M712.781 171.281 520.281 171.281 520.281 197.75 493.812 197.75 493.812 346.432 686.312 346.432 686.312 319.963 712.781 319.963ZM671.875 332.5 508.25 332.5 508.25 211.682 671.875 211.682ZM698.344 306.031 686.312 306.031 686.312 197.75 534.719 197.75 534.719 185.719 698.344 185.719Z" fill="#7030A0"/></g></svg>